<?xml version="1.0" encoding="utf-8"?>
<!-- Generator: Adobe Illustrator 23.0.1, SVG Export Plug-In . SVG Version: 6.00 Build 0)  -->
<svg version="1.1" id="レイヤー_1" xmlns="http://www.w3.org/2000/svg" xmlns:xlink="http://www.w3.org/1999/xlink" x="0px"
	 y="0px" viewBox="0 0 322 33.7" style="enable-background:new 0 0 322 33.7;" xml:space="preserve">
<style type="text/css">
	.st0{fill:#E60012;}
	.st1{fill:#231815;}
</style>
<title>logo</title>
<g id="レイヤー_1-2">
	<rect x="225.6" y="11.7" class="st0" width="10.6" height="5.6"/>
	<rect x="186.9" y="11.7" class="st0" width="10.6" height="5.6"/>
	<path class="st1" d="M60.3,0h-17c-5.3,0-7,1.4-7,7v15.6c0,5.6,1.7,7,7,7h5.4v4.1h6.2v-4.1h5.4c5.3,0,7-1.4,7-7V7
		C67.3,1.4,65.6,0,60.3,0z M60.7,24.1h-5.8v-3.2h-6.2v3.2h-5.8v-19h17.8L60.7,24.1z"/>
	<path class="st1" d="M94.7,24.1H79.1V0h-6.6v22.6c0,5.6,1.7,7,7,7h14.8c5.3,0,7-1.4,7-7V0h-6.6V24.1z"/>
	<path class="st1" d="M118,0l-15,29.6h6.2l3.1-6.5H129l3.2,6.5h6.9L123.9,0H118z M114.9,17.8l5.9-12.1l5.7,12.1H114.9z"/>
	<path class="st1" d="M163,18.4c4.3,0,6.4-1.6,6.4-5.8v-7c0-4.1-2-5.7-6.4-5.7h-21.1v29.6h6.5V18.4h4.4l10.2,11.2h8.9l-11.3-11.2
		L163,18.4z M148.4,13.4V5.1H160c2,0,2.9,0.4,2.9,2.4V11c0,2-0.9,2.4-2.9,2.4L148.4,13.4z"/>
	<polygon class="st1" points="220.2,5.1 238.7,5.1 238.7,0 213.6,0 213.6,29.6 238.9,29.6 238.9,24.1 220.2,24.1 	"/>
	<path class="st1" d="M265.7,15.6c0,0.9,0.1,2.6,0.3,5.1C265,19.5,248.3,0,248.3,0h-4.5v29.6h5.9v-16c0-0.9-0.1-2.4-0.3-4.7
		c0.8,0.9,17.7,20.7,17.7,20.7h4.5V0h-5.9V15.6z"/>
	<rect x="277" class="st1" width="6.6" height="29.6"/>
	<polygon class="st1" points="307.6,13.6 319.3,0 312.1,0 303.9,10.1 295.4,0 287.1,0 300,14.4 287.3,29.6 294.7,29.6 303.7,18.1 
		313.6,29.6 322,29.6 	"/>
	<polygon class="st1" points="181.5,5.1 200,5.1 200,0 174.9,0 174.9,29.6 200.3,29.6 200.3,24.1 181.5,24.1 	"/>
	<path class="st1" d="M0,24.1c0,4.4,2.2,5.6,7,5.6h17.6c5.3,0,7-1.4,7-7v-4.1c0-5.6-1.8-7-7-7H7V5.1h18.5v2.7h5.8V6.5
		c0-5.1-2-6.5-7-6.5h-16c-5.3,0-7,1.4-7,7v3.3c0,5.6,1.7,7,7,7h17.6v6.8L0,24.1z"/>
</g>
</svg>
